<?xml version="1.0" standalone="no"?>
<!DOCTYPE svg PUBLIC "-//W3C//DTD SVG 20010904//EN"
 "http://www.w3.org/TR/2001/REC-SVG-20010904/DTD/svg10.dtd">
<svg version="1.0" xmlns="http://www.w3.org/2000/svg"
 width="1280.000000pt" height="1044.000000pt" viewBox="0 0 1280.000000 1044.000000"
 preserveAspectRatio="xMidYMid meet">
<metadata>
Created by potrace 1.15, written by Peter Selinger 2001-2017
</metadata>
<g transform="translate(0.000000,1044.000000) scale(0.100000,-0.100000)"
fill="#000000" stroke="none">
<path d="M9345 10434 c-314 -36 -492 -74 -760 -161 -1739 -565 -3638 -2358
-4156 -3923 -99 -300 -137 -535 -125 -775 4 -77 8 -158 9 -179 l2 -40 -60 -17
c-33 -10 -63 -15 -66 -11 -3 4 -29 41 -56 82 -118 176 -274 349 -434 482 -259
214 -499 339 -868 450 l-44 13 -49 115 c-82 196 -273 570 -347 682 -119 180
-193 237 -365 280 -68 17 -101 20 -230 15 -164 -5 -279 -25 -456 -79 -58 -17
-107 -33 -109 -35 -9 -6 21 -83 32 -83 7 0 44 11 84 25 40 13 128 36 195 51
103 23 148 28 278 28 165 1 215 -7 304 -51 100 -50 200 -190 356 -498 81 -161
203 -426 197 -431 -1 -1 -24 2 -52 7 -96 17 -387 22 -506 10 -134 -15 -307
-51 -437 -93 -52 -16 -95 -28 -96 -26 -2 2 -20 30 -41 63 -66 104 -219 316
-301 415 -196 238 -285 295 -503 320 -151 18 -364 -10 -586 -76 -50 -14 -98
-29 -108 -31 -13 -4 -16 -11 -11 -27 11 -35 23 -66 26 -66 2 0 46 14 98 30 52
17 155 42 229 56 116 23 152 26 280 22 227 -7 291 -39 459 -234 95 -109 295
-380 350 -473 l23 -39 -93 -45 c-207 -101 -390 -231 -567 -402 -407 -393 -657
-902 -737 -1495 -25 -186 -23 -512 5 -700 115 -776 532 -1417 1161 -1788 435
-257 967 -347 1458 -249 l113 23 147 -146 c81 -80 214 -200 296 -265 332 -267
372 -298 430 -338 93 -63 254 -142 332 -162 38 -10 139 -48 224 -85 599 -263
1234 -433 1936 -519 355 -44 544 -55 974 -55 420 -1 558 6 908 45 1653 182
3037 864 3669 1809 64 96 146 248 198 368 l40 94 398 147 c218 80 398 150 400
155 1 5 -153 116 -343 246 l-345 238 -8 48 c-57 333 -104 472 -267 794 -125
245 -265 430 -410 540 -39 30 -120 96 -178 146 -211 179 -436 336 -685 478
l-117 68 152 107 c329 229 507 377 763 635 287 289 451 507 585 781 117 238
162 407 163 620 2 181 -26 298 -109 454 -198 377 -674 621 -1347 692 -101 10
-117 15 -111 28 17 43 58 166 84 256 113 391 117 764 9 1043 -160 417 -570
648 -1136 641 -65 -1 -131 -4 -148 -5z"/>
</g>
</svg>
